<svg id="Layer_1" data-name="Layer 1" xmlns="http://www.w3.org/2000/svg" viewBox="0 0 150.5 42.54"><path d="M150,121.27l-1.69-1.18-4.27-3-3.82-2.66-3.41-2.38-3.08-2.14L131,108m-25.26,26.46-1.84-4.06-28.78,0-28.75,0L45,134.57l-1.48,4.53,32.08,0,32.14,0Zm-5-11,0-.08-26.07,0-26,0-20.88,0,20.87,0-1.07,3.3,27.33,0,27.36,0Zm26.16,0,2.71,3.22,3.08,3.66-28.83,0-28.78,0,.25,4.07,30.37-.05,2,4.54L140,139H150V123.47Zm17.31,20.58-34.16,0-34.12,0-34.06,0-34,0,3.63-5.09,32-.05,32.08,0,32.14,0-2-4.54-30.37.05-30.32,0-30.28.05,2.89-4.07,2.61-3.66,2.36-3.32h-.2L0,123.6V150H3.8L40,150l36.29,0,36.36,0,36.41,0H150v-5.78ZM0,144.25H7.9l34,0,34.06,0,34.12,0,34.16,0H150M0,139.16H11.53l32-.05,32.08,0,32.14,0L140,139H150M0,134.64l14.76,0L45,134.57l30.32,0,30.37-.05,30.41,0,13.86,0M0,130.57l17.65,0,28.71-.05,28.75,0,28.78,0,28.83,0,17.28,0M0,126.92l20.26,0,27.29,0,27.33,0,27.36,0,27.4,0,20.36,0m-23.15-3.28.08.1,2.71,3.22,3.08,3.66,3.42,4.07L140,139l4.29,5.1,4.85,5.77m-48.35-26.41,0,.08,1.47,3.24,1.65,3.67,1.84,4.06,2,4.54,2.3,5.09,2.6,5.77m-38-26.4v0l.21,3.28.23,3.66.25,4.07.28,4.53.32,5.1.36,5.76m-27.69-26.4v0l-1.07,3.3-1.19,3.66L45,134.57l-1.48,4.53-1.66,5.1L40,150M22.62,123.57l-2.36,3.32-2.61,3.66-2.89,4.07-3.23,4.53L7.9,144.24,3.8,150m136.42-35.55-3.41-2.38-3.08-2.14L108,110H90.49l-16.34,0H58.22L37.7,110l-21.45,0L0,110.06v2.14H13.14l22.14,0,21.42,0L55,114.53H74.32l19.65,0-1.83-2.38,18.85,0,3.37,2.38,3.76,2.65,25.92,0ZM94,114.5l-19.65,0H55l-22.42,0-22.89,0-3.83,2.65,23.73,0,23.52,0,21.31,0,21.58,0ZM89,108H74.07l-34.17,0-39.9,0v15.46l22.43,0,3.81-3.37,24.77,0-2.38,3.35-26.38,0,26.37,0,26.05,0h26.1l0-.08-26.07,0-.13-3.33,23.77,0-2.3-3,22.11,0,25.92,0,4.27,3-26,0-24,0,2.53,3.3,26,0,23.15,0V108Zm5,6.47-1.83-2.38,18.85,0,3.37,2.38Zm-88.1,2.73-4.31,3,24.68,0,3.36-3Zm-5.87,3H1.56l24.68,0,24.77,0,23.53,0,23.77,0,24,0,26,0H150M0,117.23H5.87l23.73,0,23.52,0,21.31,0,21.58,0,22.11,0,25.92,0h6m0-2.66h-9.78l-25.86,0L94,114.5l-19.65,0H55l-22.42,0-22.89,0H0m0-2.39H13.14l22.14,0,21.42,0,17.53,0H92.14l18.85,0,25.82,0H150m-44.79-4L108,110l3,2.14,3.37,2.38,3.76,2.65,4.22,3,4.58,3.24M89,108l0,.06,1.5,1.94,1.65,2.15L94,114.5l2,2.65,2.3,3,2.53,3.3,0,0M74.07,108V108l.08,1.95.08,2.14.09,2.39.11,2.65.11,3,.13,3.33M59.57,108.1,58.22,110l-1.52,2.15L55,114.53l-1.89,2.66-2.11,3-2.38,3.35M40,108l-.13.12L37.7,110l-2.42,2.15-2.69,2.38-3,2.66-3.36,3-3.81,3.37h0M0,121.29l1.56-1.08,4.31-3,3.83-2.65,3.44-2.39L16.25,110,19,108.11m131,1.81H133.73L108,110H90.49l-16.34,0H58.22L37.7,110l-21.45,0L0,110.06" transform="translate(0.25 -107.71)" fill="none" stroke="#737f7f" stroke-miterlimit="10" stroke-width="0.5"/></svg>